<?xml version="1.0" encoding="UTF-8" standalone="no" ?>
<!DOCTYPE svg PUBLIC "-//W3C//DTD SVG 1.1//EN" "http://www.w3.org/Graphics/SVG/1.1/DTD/svg11.dtd">
<svg xmlns="http://www.w3.org/2000/svg" xmlns:xlink="http://www.w3.org/1999/xlink" version="1.1" width="600" height="200" viewBox="0 0 600 200" xml:space="preserve">
<desc>Created with Fabric.js 5.2.4</desc>
<defs>
</defs>
<g transform="matrix(1 0 0 1 300 100)" id="a6b2f028-c603-4023-b138-73682f36cfbe"  >
<rect style="stroke: none; stroke-width: 1; stroke-dasharray: none; stroke-linecap: butt; stroke-dashoffset: 0; stroke-linejoin: miter; stroke-miterlimit: 4; fill: rgb(255,255,255); fill-rule: nonzero; opacity: 1; visibility: hidden;" vector-effect="non-scaling-stroke"  x="-300" y="-100" rx="0" ry="0" width="600" height="200" />
</g>
<g transform="matrix(Infinity NaN NaN Infinity 0 0)" id="9aff8a50-ed08-4068-9147-9c94aedb44de"  >
</g>
<g transform="matrix(0.55 0 0 0.55 300 100)"  >
<g style="" vector-effect="non-scaling-stroke"   >
		<g transform="matrix(1 0 0 1 0 0)"  >
<rect style="stroke: none; stroke-width: 1; stroke-dasharray: none; stroke-linecap: butt; stroke-dashoffset: 0; stroke-linejoin: miter; stroke-miterlimit: 4; fill: rgb(255,255,255); fill-rule: nonzero; opacity: 1; visibility: hidden;" vector-effect="non-scaling-stroke"  x="-540" y="-540" rx="0" ry="0" width="1080" height="1080" />
</g>
		<g transform="matrix(1.71 0 0 1.71 495.27 50.24)"  >
<path style="stroke: none; stroke-width: 1; stroke-dasharray: none; stroke-linecap: butt; stroke-dashoffset: 0; stroke-linejoin: miter; stroke-miterlimit: 4; fill: rgb(80,9,181); fill-rule: nonzero; opacity: 1;" vector-effect="non-scaling-stroke"  transform=" translate(-588.93, -94.03)" d="M 586.2759399 91.9059296 C 585.9173584 91.3990326 585.1627807 90.9641343 584.3088378 90.9641343 C 583.3555297 90.9641343 582.7622069 91.3846284 582.7622069 92.0297776 C 582.7622069 93.77512370000001 587.1918334000001 92.98309330000001 587.1918334000001 95.8027192 C 587.1918334000001 97.20245369999999 586.0541381 98.144249 584.2843627000001 98.144249 C 582.7982177000001 98.144249 581.8333739000001 97.5624619 581.2890014000001 96.7934723 L 582.0939941 96.038887 C 582.6253662 96.7329941 583.3929443000001 97.090126 584.2958374 97.090126 C 585.3845215 97.090126 586.0037841999999 96.6206665 586.0037841999999 95.87760159999999 C 586.0037841999999 93.94792939999999 581.5741576999999 94.80043789999999 581.5741576999999 92.0672149 C 581.5741576999999 90.7913284 582.7002562999999 89.9128951 584.3462523999999 89.9128951 C 585.5832518999999 89.9128951 586.5855711999999 90.4572371 587.0679320999999 91.1398238 L 586.2759399 91.9059296 z M 592.507019 96.4363403 L 595.4533691 91.8425674 L 595.4533691 97.99447629999999 L 596.5665283000001 97.99447629999999 L 596.5665283000001 90.06266019999998 L 595.4274902000001 90.06266019999998 L 592.5819091000001 94.60459139999998 L 589.7234496000001 90.06266019999998 L 588.4360350000001 90.06266019999998 L 588.4360350000001 97.99447629999999 L 589.5491942000001 97.99447629999999 L 589.5491942000001 91.8425674 L 592.507019 96.4363403 z" stroke-linecap="round" />
</g>
		<g transform="matrix(1.71 0 0 1.71 109.52 -23.73)"  >
<path style="stroke: none; stroke-width: 1; stroke-dasharray: none; stroke-linecap: butt; stroke-dashoffset: 0; stroke-linejoin: miter; stroke-miterlimit: 4; fill: rgb(80,9,181); fill-rule: nonzero; opacity: 1;" vector-effect="non-scaling-stroke"  transform=" translate(-363.33, -50.77)" d="M 186.5308533 45.0268745 C 175.3210297 45.0268745 167.7539368 53.5741272 167.7539368 64.3633422 C 167.7539368 75.15255720000002 175.46124269999999 83.8400191 186.3906556 83.8400191 C 193.2567597 83.8400191 198.7208253 81.4578551 202.9243623 77.25432570000001 L 211.61308300000002 89.86616500000001 C 206.2879335 95.75084670000001 196.6190644 99.9543761 185.97004710000002 99.9543761 C 166.0727693 99.9543761 150.6594239 83.9802169 150.6594239 64.5035475 C 150.6594239 44.8866728 166.0727692 28.912513599999997 185.6896516 28.912513599999997 C 197.17987069999998 28.912513599999997 206.28793349999998 32.8356341 212.1726228 39.0007228 L 202.3648072 51.1919574 C 198.1612854 47.1286354 193.1165466 45.0268745 186.5308533 45.0268745 z M 265.6352234 90.7073822 C 260.7304688 96.4534073 253.86402889999997 99.9560928 245.17616269999996 99.9560928 C 227.37979119999997 99.9560928 212.94589229999997 85.3832473 212.94589229999997 64.50354759999999 C 212.94589229999997 44.18468469999999 226.53852839999996 28.91079709999999 245.17616269999996 28.91079709999999 C 254.00424189999995 28.91079709999999 260.87066649999997 32.13306809999999 265.6352234 37.59867089999999 L 265.6352234 30.872453599999986 L 282.87078859999997 30.872453599999986 L 282.87078859999997 97.99443999999998 L 265.6352234 97.99443999999998 L 265.6352234 90.7073822 z M 265.6352234 64.3633423 C 265.6352234 53.5736008 258.2079773 45.025936099999996 247.97906499999996 45.025936099999996 C 237.60868839999995 45.025936099999996 230.04248049999995 53.57360069999999 230.04248049999995 64.3633423 C 230.04248049999995 75.15308390000001 237.60868839999995 83.8409577 247.97906499999996 83.8409577 C 258.2079773 83.8409576 265.6352234 75.1530838 265.6352234 64.3633423 z M 312.2918396 97.9944382 L 295.1952209 97.9944382 L 295.1952209 30.8724537 L 312.2918396 30.8724537 L 312.2918396 38.1595078 C 316.0749207 32.553691900000004 321.6807556 28.910797199999998 328.6873779 28.910797199999998 C 333.1715393 28.910797199999998 336.8144226 30.171409699999998 339.4771118 32.273273499999995 L 332.3302917 48.528621699999995 C 330.0881958 46.7071724 326.72445669999996 45.585506499999994 323.50219719999996 45.585506499999994 C 316.63577259999994 45.585506499999994 312.2918395 51.331527799999996 312.2918395 60.4400292 L 312.2918395 97.9944382 z M 337.0910645 64.5035477 C 337.0910645 44.885727 351.66391 28.910797199999998 371.0013123 28.910797199999998 C 390.1997681 28.910797199999998 404.7726136 43.764057199999996 404.7726136 63.1027261 C 404.7726136 65.20459 404.6324158 67.586876 404.353241 68.7072755 L 354.6070252 68.7072755 C 356.2882386 78.09619909999999 363.4350892 84.8224183 373.8041993 84.8224183 C 380.5304261 84.8224183 386.2764588 81.8793031 390.1997681 77.81578069999999 L 399.0278626 89.4467698 C 393.9828797 95.3317414 384.45373539999997 99.9560929 373.10318 99.9560929 C 352.2247314 99.9560928 337.0910645 83.981163 337.0910645 64.5035477 z M 354.8874207 57.9175377 L 387.2566529 57.9175377 C 385.294983 48.3884125 379.269806 43.483642599999996 371.2817078 43.483642599999996 C 362.7340393 43.4836426 356.8490906 49.369873 354.8874207 57.9175377 z M 411.7754517 1.5852941 L 428.87203980000004 1.5852941 L 428.87203980000004 97.9944356 L 411.7754517 97.9944356 L 411.7754517 52.451493600000006 L 411.7754517 1.5852941 z M 436.7174072 64.5035477 C 436.7174072 44.885727 452.1315002 28.910797199999998 471.6091308 28.910797199999998 C 491.0867309 28.910797199999998 506.6410522 44.885726999999996 506.6410522 64.5035477 C 506.6410522 83.9811631 491.08673089999996 99.9560929 471.6091308 99.9560929 C 452.1315002 99.9560928 436.7174072 83.981163 436.7174072 64.5035477 z M 489.4054871 64.3633423 C 489.4054871 53.5736008 481.978241 45.025936099999996 471.74932870000004 45.025936099999996 C 461.3789674 45.025936099999996 453.81274420000005 53.57360069999999 453.81274420000005 64.3633423 C 453.81274420000005 75.15308390000001 461.37896730000006 83.8409577 471.74932870000004 83.8409577 C 481.978241 83.8409576 489.4054871 75.1530838 489.4054871 64.3633423 z M 531.5792236 97.9944382 L 514.4838867 97.9944382 L 514.4838867 30.8724537 L 531.5792236 30.8724537 L 531.5792236 37.458465600000004 C 535.782959 31.9928589 542.2287597 28.910797100000003 550.4959716 28.910797100000003 C 566.0502928999999 28.910797100000003 576.000061 39.840744 576.000061 57.35670470000001 L 576.000061 97.99443820000002 L 558.9047241 97.99443820000002 L 558.9047241 59.87919620000002 C 558.9047241 50.770694800000015 553.5793457 45.02593620000002 545.3120726999999 45.02593620000002 C 536.7644042 45.02593620000002 531.5792236 50.770694800000015 531.5792236 59.87919620000002 L 531.5792236 97.9944382 z" stroke-linecap="round" />
</g>
		<g transform="matrix(1.71 0 0 1.71 -458.61 -39.83)"  >
<path style="stroke: none; stroke-width: 1; stroke-dasharray: none; stroke-linecap: butt; stroke-dashoffset: 0; stroke-linejoin: miter; stroke-miterlimit: 4; fill: rgb(80,9,181); fill-rule: nonzero; opacity: 1;" vector-effect="non-scaling-stroke"  transform=" translate(-31.09, -41.35)" d="M 31.0935249 0 C 13.9210176 0 0 13.9210787 0 31.093586 C 0 48.266093299999994 13.9210176 62.1763459 31.0935249 62.1763459 C 32.7230224 62.1763459 34.6920509 62.0342866 36.246303499999996 61.7659875 L 37.351806599999996 64.4263688 L 31.122028299999997 79.55169690000001 C 33.182018199999995 79.5547487 35.2765579 79.90974440000001 37.324157699999994 80.65499890000001 C 38.77688979999999 81.1837617 40.12134929999999 81.87835710000002 41.34428019999999 82.7091905 L 48.87261579999999 64.4263688 L 41.387676199999994 46.1245576 C 36.70487589999999 49.3258134 30.599981299999996 50.3000795 24.862953099999995 48.2119523 C 15.408727599999995 44.7709466 10.534149099999995 34.3172418 13.975157699999995 24.8630143 C 17.416225399999995 15.4088498 27.869930199999995 10.5342103 37.324095699999994 13.9752799 C 44.73071949999999 16.671028200000002 49.32636159999999 23.6707841 49.31519219999999 31.1221496 L 61.75442029999999 36.245391 C 62.03409099999999 34.5688964 62.18704889999999 32.8494903 62.18704889999999 31.0935851 C 62.1870499 13.9210787 48.2660294 0 31.0935249 0 z" stroke-linecap="round" />
</g>
		<g transform="matrix(1.71 0 0 1.71 -362.14 -57.38)"  >
<path style="stroke: none; stroke-width: 1; stroke-dasharray: none; stroke-linecap: butt; stroke-dashoffset: 0; stroke-linejoin: miter; stroke-miterlimit: 4; fill: rgb(68,184,243); fill-rule: nonzero; opacity: 1;" vector-effect="non-scaling-stroke"  transform=" translate(-87.52, -31.09)" d="M 97.7797165 0.0000231 C 80.60720830000001 0.0000231 66.6861267 13.9211018 66.6861267 31.0936091 C 66.6861267 32.7231066 66.8380051 34.690647399999996 67.1078262 36.246361 L 64.4377212 37.3507311 L 49.3151931 31.1224787 C 49.312080300000005 33.182346599999995 48.9571494 35.2767641 48.2118911 37.3242419 C 47.6834335 38.7761843 46.9892654 40.1199076 46.1590423 41.342289199999996 L 64.4377212 48.87154029999999 L 82.7487411 41.387699399999995 C 79.5474853 36.70489909999999 78.57321920000001 30.600065499999996 80.6613464 24.863039299999997 C 84.10235589999999 15.408811899999996 94.5559997 10.534173299999997 104.0102234 13.975241899999997 C 113.464447 17.416250499999997 118.3390885 27.869953399999996 114.8980179 37.3241189 C 112.2022705 44.7307427 105.2025147 49.3264459 97.7511521 49.3152764 L 92.6249085 61.7544434 C 94.3014069 62.0341752 96.0238114 62.1871331 97.7797165 62.1871331 C 114.9522247 62.1871331 128.8733063 48.2660554 128.8733063 31.0936082 C 128.8733063 13.9211016 114.9522247 0.0000231 97.7797165 0.0000231 z" stroke-linecap="round" />
</g>
		<g transform="matrix(1.71 0 0 1.71 -441.08 56.64)"  >
<path style="stroke: none; stroke-width: 1; stroke-dasharray: none; stroke-linecap: butt; stroke-dashoffset: 0; stroke-linejoin: miter; stroke-miterlimit: 4; fill: rgb(121,76,255); fill-rule: nonzero; opacity: 1;" vector-effect="non-scaling-stroke"  transform=" translate(-41.36, -97.77)" d="M 64.4377213 79.9947052 L 46.12455750000001 87.4792099 C 49.32581330000001 92.1619568 50.300018300000005 98.2669067 48.211952200000006 104.0039368 C 44.770885500000006 113.45809940000001 34.317241700000004 118.33274080000001 24.863014200000006 114.8916703 C 15.408788700000006 111.4506684 10.534149100000006 100.9969636 13.975218800000006 91.5427323 C 16.671028200000006 84.1361695 23.670784000000005 79.5404664 31.122149500000006 79.5516968 L 36.24532990000001 67.1124726 C 34.56883530000001 66.8328019 32.849490200000005 66.6761475 31.09352400000001 66.6761475 C 13.9210787 66.6761475 0 80.6008606 0 97.7733078 C 0 114.9458084 13.9210787 128.8668976 31.0935249 128.8668976 C 48.2660293 128.8668976 62.1870155 114.94580839999999 62.1870155 97.77330779999998 C 62.1870155 96.14386749999998 62.0484504 94.26782989999998 61.760467500000004 92.62059779999998 L 64.4377212 91.51618189999998 L 79.5581054 97.74504849999998 C 79.5611572 95.68499749999998 79.9160919 93.59045409999999 80.6614074 91.54273219999999 C 81.189865 90.09078979999998 81.8840331 88.7470092 82.71425620000001 87.52462759999999 L 64.4377213 79.9947052 z" stroke-linecap="round" />
</g>
		<g transform="matrix(1.71 0 0 1.71 -344.58 39.1)"  >
<path style="stroke: none; stroke-width: 1; stroke-dasharray: none; stroke-linecap: butt; stroke-dashoffset: 0; stroke-linejoin: miter; stroke-miterlimit: 4; fill: rgb(0,187,186); fill-rule: nonzero; opacity: 1;" vector-effect="non-scaling-stroke"  transform=" translate(-97.78, -87.51)" d="M 97.7797165 66.676178 C 96.15027620000001 66.676178 94.2000198 66.82875829999999 92.62491610000001 67.1016083 L 91.52259070000001 64.42911529999999 L 97.75078590000001 49.31525419999999 C 95.69091800000001 49.312141399999994 93.59661870000001 48.95714949999999 91.549141 48.21195219999999 C 90.09640510000001 47.68318939999999 88.7519532 46.98859399999999 87.52902230000001 46.157699599999994 L 80.001175 64.42911529999999 L 87.4856187 82.74233249999999 C 92.1683656 79.54107669999999 98.27331550000001 78.5668106 104.01034560000001 80.65493779999998 C 113.46450820000001 84.09594729999998 118.33914960000001 94.54965219999998 114.8980791 104.00387579999999 C 111.4570772 113.45803839999999 101.0033724 118.3326798 91.5492021 114.89160929999998 C 84.1425783 112.19586189999998 79.5469362 105.19604499999998 79.5581056 97.74474349999998 L 67.1188814 92.62145249999999 C 66.83921070000001 94.29795089999999 66.6861193 96.01740279999999 66.6861193 97.77330799999999 C 66.6861193 114.94580859999999 80.6072695 128.86689779999998 97.7797167 128.86689779999998 C 114.95228599999999 128.86689779999998 128.87330649999998 114.94580859999998 128.87330649999998 97.77330799999997 C 128.87330649999998 80.60080739999997 114.9522858 66.676178 97.7797165 66.676178 z" stroke-linecap="round" />
</g>
</g>
</g>
</svg>